<?xml version="1.0" standalone="no"?>
<!DOCTYPE svg PUBLIC "-//W3C//DTD SVG 20010904//EN"
 "http://www.w3.org/TR/2001/REC-SVG-20010904/DTD/svg10.dtd">
<svg version="1.0" xmlns="http://www.w3.org/2000/svg"
 width="410.000000pt" height="410.000000pt" viewBox="0 0 410.000000 410.000000"
 preserveAspectRatio="xMidYMid meet">
<metadata>
Created by potrace 1.14, written by Peter Selinger 2001-2017
</metadata>
<g transform="translate(0.000000,410.000000) scale(0.100000,-0.100000)"
fill="#000000" stroke="none">
<path d="M0 2050 l0 -2050 2050 0 2050 0 0 2050 0 2050 -2050 0 -2050 0 0
-2050z m2254 1340 c13 -65 12 -385 -1 -450 -7 -36 -8 -71 -2 -100 24 -123 19
-435 -8 -506 -4 -11 17 -14 103 -16 l109 -3 7 -40 c23 -126 18 -432 -9 -501
-4 -11 -29 -14 -108 -14 l-102 0 10 -47 c14 -65 14 -385 0 -453 -7 -36 -8 -71
-2 -100 24 -123 19 -435 -8 -506 -4 -11 -44 -14 -213 -14 -178 0 -209 2 -214
15 -27 72 -31 394 -6 503 7 28 7 56 0 85 -25 106 -21 430 6 501 5 14 -6 16
-99 16 -121 0 -111 -9 -127 110 -12 96 -12 223 0 329 15 130 5 121 127 121 91
0 104 2 99 15 -27 72 -31 394 -6 502 7 29 7 57 0 85 -25 107 -21 431 6 502 6
15 29 16 217 14 l211 -3 10 -45z m-632 -555 c23 -126 18 -432 -9 -501 -4 -12
-54 -14 -283 -14 -259 0 -279 1 -284 18 -24 75 -32 284 -16 421 15 136 -21
122 303 119 l282 -3 7 -40z m1400 0 c23 -126 18 -432 -9 -501 -4 -12 -54 -14
-283 -14 -259 0 -279 1 -284 18 -24 75 -32 284 -16 421 15 136 -21 122 303
119 l282 -3 7 -40z m-1400 -1120 c23 -126 18 -432 -9 -501 -4 -12 -54 -14
-283 -14 -259 0 -279 1 -284 18 -24 75 -32 284 -16 421 15 136 -21 122 303
119 l282 -3 7 -40z m1400 0 c23 -126 18 -432 -9 -501 -4 -12 -54 -14 -283 -14
-259 0 -279 1 -284 18 -24 75 -32 284 -16 421 15 136 -21 122 303 119 l282 -3
7 -40z"/>
</g>
</svg>
